# This file uses centimeters as units for non-parametric coordinates.

mtllib Small_Rock.mtl
g default
v -0.348664 0.680638 -0.538636
v -0.406700 -0.577091 -0.643118
v -0.311485 0.529173 0.386145
v 0.380743 0.833801 0.012286
v -0.742256 -0.004759 -0.826807
v 0.055052 -0.075810 -1.159717
v -0.343874 -0.484344 0.641286
v -0.768342 -0.004503 0.087872
v -0.411369 -0.493456 0.127526
v 0.881968 0.068450 -0.315940
v 0.620160 0.009569 -0.747303
v -0.362837 -0.078839 0.579317
v -0.200114 0.108729 0.716985
v 0.292630 0.067389 0.661038
v 0.691139 0.033375 0.383949
v -0.210305 -0.177535 0.795356
v 0.127919 -0.600830 0.125624
v 0.223420 -0.608071 0.186867
v 0.335767 -0.661618 -0.168901
v 0.473615 0.464035 0.254285
v 0.700368 0.205341 -0.478318
v 0.406053 0.738458 -0.263369
v 0.191134 0.562056 -0.858918
v 0.291849 -0.522638 -0.841670
v 0.347300 -0.597995 -0.639626
v -0.530392 -0.025161 -0.955925
v -0.544684 0.264135 -0.859321
v -0.473417 0.438313 0.263664
v -0.575334 -0.391869 0.100848
v 0.795812 0.195160 0.532908
v 0.351812 -0.037296 0.606796
v -0.264618 -0.655467 -0.188417
v 0.181871 0.642479 0.086486
v 0.091395 0.655621 -0.031791
v 0.415027 0.463838 -0.944554
v 0.699434 0.631142 0.181861
v 0.640874 0.535166 -0.077490
v 0.755305 0.386017 0.282772
v 0.196782 -0.715599 -0.110100
v 0.438227 -0.390605 0.332466
v -0.710699 0.037112 -0.592726
v 0.481379 0.604302 0.294402
v 0.750782 0.171258 -0.711522
v 0.672057 0.457659 -0.081518
v 0.175189 0.742479 -0.141193
v 0.235673 0.663676 -0.272143
v 0.696780 -0.130322 -0.610848
v -0.489025 -0.420611 -0.684009
v -0.177436 -0.367143 -0.840053
v -0.095255 0.163942 -1.078097
v 0.148505 0.073727 -1.131125
v -0.384130 0.110079 0.614121
v -0.360611 0.662786 -0.283314
v -0.807713 0.351131 -0.291632
v 0.019053 -0.230265 0.680423
v -0.284890 -0.587628 -0.243287
v -0.427785 -0.516853 -0.166326
v 0.745720 -0.196951 -0.449807
v 0.689302 -0.500131 0.001233
v 0.001599 0.159814 0.619679
v 0.458453 -0.584253 -0.067158
v 0.320865 -0.594776 0.246033
v -0.571794 -0.486609 -0.283452
v -0.535294 -0.408748 -0.216743
vt 0.972921 0.451204
vt 0.999375 0.454047
vt 0.582789 0.721491
vt 0.375962 0.363750
vt 0.039148 0.863524
vt 0.529267 0.923520
vt 0.640664 0.916866
vt 0.326587 0.595804
vt 0.824049 0.199639
vt 0.228701 0.645264
vt 0.865445 0.792128
vt 0.873263 0.307798
vt 0.172240 0.651131
vt 0.155360 0.703187
vt 0.000076 0.678981
vt 0.628234 0.482227
vt 0.603092 0.524366
vt 0.523900 0.396156
vt 0.572074 0.369823
vt 0.532875 0.518950
vt 0.513838 0.119721
vt 0.625825 0.629561
vt 0.567123 0.609732
vt 0.495460 0.896890
vt 0.245022 0.746177
vt 0.432126 0.589969
vt 0.000000 0.481142
vt 0.729618 0.784610
vt 0.473160 0.062381
vt 0.354391 0.313697
vt 0.335864 0.247579
vt 0.966206 0.385190
vt 0.525842 0.780225
vt 0.248342 0.804166
vt 0.309888 0.788808
vt 0.292661 0.156774
vt 0.295625 0.242509
vt 0.169907 0.180028
vt 0.874254 0.728617
vt 0.180051 0.140050
vt 0.106282 0.413076
vt 0.646324 0.640753
vt 0.182002 0.566758
vt 0.684943 0.110473
vt 0.731797 0.722295
vt 0.728857 0.361345
vt 0.677612 0.506693
vt 0.523961 0.225397
vt 0.654729 0.249785
vt 0.547325 0.769523
vt 1.000000 0.346512
vt 0.224189 0.140518
vt 0.263548 0.127604
vt 0.904047 0.381730
vt 0.896350 0.313816
vt 0.300560 0.417548
vt 0.189805 0.427500
vt 0.278941 0.401104
vt 0.238843 0.566758
vt 0.874254 0.577307
vt 0.192221 0.375253
vt 0.375610 0.412718
vt 0.307039 0.370669
vt 0.413267 0.655616
vt 0.379095 0.205126
vt 0.294160 0.316280
vt 0.859743 0.416076
vt 0.510293 0.889898
vt 0.857292 0.510199
vt 0.673806 0.575108
vt 0.576288 0.000000
vt 0.564463 0.501953
vt 0.751143 0.190996
vt 0.395408 0.532183
vt 0.489985 0.008864
vt 0.726160 0.602676
vt 0.151552 0.000000
vt 0.534002 0.162287
vt 0.128780 0.544251
vt 0.058923 0.530557
vt 0.679980 0.784785
vt 0.000000 0.732839
vt 0.048173 0.276867
vt 0.640664 0.740533
vt 0.981732 0.279161
vt 0.219543 0.199091
vt 0.042972 0.094950
vt 0.274509 0.295583
vt 0.828845 0.386058
vt 0.427375 0.258867
vt 0.495460 0.758836
vt 0.099764 0.873271
vt 0.335172 0.657839
vt 0.999375 0.365437
vt 0.326587 0.700571
vt 0.000000 0.844472
vt 0.413075 0.698306
vt 0.460513 0.454383
vt 0.413515 0.682032
vt 0.924777 0.610867
vt 0.496619 0.341507
vt 0.775733 0.574665
vt 0.344292 0.017662
vt 0.490586 0.398476
vt 0.507767 0.243479
vt 0.762037 0.432069
vt 0.410960 0.925322
vt 0.762037 0.229774
vt 0.155263 0.746869
vt 0.207879 0.010239
vt 0.781837 0.916927
vt 0.025655 0.325223
vt 0.816313 0.143670
vt 0.838627 0.919155
vt 0.528168 0.730852
vt 0.280770 0.336275
vt 0.938826 0.106775
vt 0.000000 0.141906
vt 0.636165 0.583300
vt 0.775733 0.139616
vn -0.155114 -0.967671 0.198880
vn -0.118503 -0.987456 0.104349
vn -0.182383 -0.981694 0.054894
vn -0.184316 -0.964828 0.187441
vn 0.439920 -0.895760 -0.063914
vn 0.439920 -0.895760 -0.063914
vn 0.717530 -0.571363 -0.398366
vn 0.673293 -0.689630 -0.266622
vn 0.788857 0.593711 -0.158780
vn 0.787446 0.596514 -0.155241
vn 0.791235 0.580177 -0.193241
vn 0.823539 0.526998 -0.209900
vn 0.701360 -0.330944 -0.631324
vn 0.770565 -0.454727 -0.446602
vn 0.664861 -0.327068 -0.671556
vn -0.736637 0.249403 0.628621
vn -0.631267 0.285405 0.721142
vn -0.564185 0.467859 0.680297
vn -0.751931 0.547017 0.367930
vn 0.468981 -0.459886 0.754031
vn 0.399476 -0.424619 0.812477
vn 0.340988 -0.542907 0.767450
vn 0.378415 -0.501013 0.778324
vn 0.933342 -0.129496 0.334817
vn 0.916329 -0.269430 0.296223
vn 0.901977 -0.334443 0.273103
vn 0.933342 -0.129496 0.334817
vn 0.579784 -0.094317 -0.809293
vn -0.104475 0.086650 -0.990746
vn 0.198793 0.169644 -0.965247
vn 0.163229 0.596314 0.785981
vn 0.107438 0.651237 0.751230
vn 0.072071 0.717408 0.692916
vn 0.141259 0.687815 0.712008
vn -0.091194 -0.923507 0.372583
vn -0.180884 -0.905589 0.383652
vn 0.747513 -0.641684 0.171657
vn 0.803329 -0.564157 0.190761
vn 0.321088 -0.613087 0.721822
vn 0.430624 -0.605253 0.669502
vn -0.308662 0.753968 0.579879
vn -0.037044 0.076005 0.996419
vn -0.101409 0.536075 0.838057
vn 0.929261 0.363634 -0.065145
vn 0.835472 0.524846 -0.162861
vn -0.062210 0.942490 -0.328393
vn 0.001524 0.958673 -0.284508
vn 0.068091 0.962483 -0.262661
vn 0.070406 0.960485 -0.269279
vn 0.596075 -0.231381 -0.768868
vn -0.268597 -0.805127 -0.528798
vn -0.151974 -0.821975 -0.548873
vn -0.228277 -0.626510 -0.745235
vn -0.390574 0.255544 -0.884392
vn -0.409052 0.270779 -0.871410
vn -0.307249 0.537556 -0.785259
vn -0.239019 0.492472 -0.836864
vn -0.920566 0.128227 0.368939
vn -0.780209 0.093175 0.618541
vn -0.570025 0.794711 0.208579
vn -0.633909 0.772127 -0.044500
vn -0.882171 0.468192 0.050698
vn 0.424592 -0.593724 0.683530
vn 0.471011 -0.513049 0.717586
vn -0.049543 -0.989550 -0.135413
vn -0.108350 -0.935400 -0.336582
vn -0.136547 -0.988696 -0.061933
vn 0.757814 -0.554212 -0.344336
vn -0.776632 0.059520 0.627136
vn -0.759413 0.058063 0.648013
vn -0.216493 0.871278 0.440460
vn -0.088205 0.993104 -0.077232
vn -0.167578 0.960479 0.222257
vn 0.349536 0.163824 -0.922489
vn 0.579110 -0.090308 -0.810232
vn 0.825273 0.495840 -0.270310
vn 0.786045 0.560448 -0.260826
vn -0.045282 0.790641 0.610603
vn 0.088166 0.811944 0.577038
vn 0.167845 0.547407 0.819862
vn 0.181976 -0.929674 0.320299
vn -0.887532 -0.457347 -0.055869
vn -0.700895 -0.529569 -0.477811
vn -0.681176 -0.581305 -0.445067
vn -0.820733 -0.568702 -0.054549
vn -0.931424 -0.363851 0.007809
vn 0.180723 0.175229 0.967799
vn 0.016955 0.546346 0.837388
vn 0.595433 0.803326 0.011313
vn 0.041342 0.993025 -0.110417
vn 0.847944 -0.297161 -0.438961
vn -0.368783 -0.772392 -0.517117
vn -0.356255 -0.559111 -0.748650
vn -0.264382 -0.609292 -0.747573
vn -0.256670 0.634919 -0.728696
vn -0.194687 0.593084 -0.781248
vn -0.654319 0.703381 -0.277708
vn -0.776394 0.555079 -0.298495
vn -0.903264 0.298047 -0.308678
vn -0.967550 0.233254 -0.097152
vn -0.767915 -0.605966 0.207636
vn -0.792593 -0.558881 0.243822
vn -0.879709 -0.475251 -0.015758
vn -0.840909 -0.535479 0.078325
vn -0.649411 -0.759902 -0.028519
vn -0.676305 -0.734420 0.056914
vn -0.649411 -0.759902 -0.028519
vn -0.101310 -0.994844 0.004647
vn -0.101310 -0.994844 0.004647
vn -0.153854 0.965223 0.211361
vn 0.009374 0.931340 0.364031
vn 0.757090 -0.525815 -0.387729
vn 0.748887 0.608919 -0.261506
vn 0.678982 0.676891 -0.284257
vn 0.959237 0.276997 0.056013
vn 0.136087 0.388995 0.911133
vn -0.002926 -0.976033 -0.217601
vn -0.002926 -0.976033 -0.217601
vn 0.337502 -0.780727 0.525888
vn 0.403203 -0.857289 0.320129
vn 0.470045 -0.784730 0.404051
vn 0.280043 -0.795478 0.537393
vn 0.271820 -0.948519 0.162560
s 1
g Small_Rock
usemtl initialShadingGroup
f 17/1/1 18/2/2 7/100/3 9/69/4
s 2
f 61/5/5 19/96/6 25/82/7 59/92/8
s 3
f 21/9/9 43/113/10 35/117/11 44/12/12
s 2
f 11/13/13 47/14/14 25/82/7 24/15/15
s 5
f 52/16/16 13/17/17 3/18/18 28/19/19
s 6
f 31/20/20 14/72/21 16/22/22 55/23/23
s 7
f 58/24/24 10/107/25 40/97/26 59/91/27
s 8
f 11/111/28 6/81/29 51/28/30
s 9
f 60/29/31 14/21/32 38/90/33 20/65/34
s 1
f 39/32/35 17/1/1 9/69/4 32/67/36
s 7
f 10/107/25 30/34/37 15/35/38
s 6
f 55/23/23 16/22/22 7/3/39 40/26/40
s 9
f 33/36/41 20/31/42 42/37/43
s 3
f 38/89/44 10/108/45 21/9/9 44/12/12
s 9
f 22/38/46 35/118/47 23/87/48 46/40/49
s 2
f 6/80/50 11/13/13 24/15/15
s 12
f 24/112/51 25/83/52 49/41/53
s 8
f 26/42/54 5/119/55 27/76/56 50/45/57
s 5
f 8/46/58 12/47/59 52/16/16 28/19/19
f 28/19/19 3/18/60 53/48/61 54/49/62
s 6
f 30/104/63 14/72/21 31/20/20 15/98/64
s 15
f 25/7/65 32/33/66 56/50/67
s 2
f 25/82/7 47/14/14 58/109/68 59/92/8
s 5
f 7/102/69 16/70/70 12/47/59 8/46/58
s 9
f 33/36/41 4/86/71 45/52/72 34/53/73
s 8
f 35/11/74 43/114/75 11/111/28 51/28/30
s 3
f 36/54/76 38/89/44 44/12/12 37/55/77
s 9
f 14/21/32 30/105/78 38/90/33
f 3/103/79 13/75/80 60/29/31 20/65/34
s 1
f 19/94/81 18/2/2 17/1/1 39/32/35
s 7
f 10/107/25 15/35/38 40/97/26
s 12
f 64/56/82 5/43/83 48/57/84 63/58/85
f 41/59/86 5/43/83 64/56/82
s 9
f 20/31/42 38/30/87 36/88/88 42/37/43
f 36/88/88 4/86/71 33/36/41 42/37/43
s 3
f 10/108/89 43/113/10 21/9/9
s 9
f 23/87/48 1/77/90 45/52/72 46/40/49
f 45/52/72 4/86/71 22/38/46 46/40/49
s 2
f 11/13/13 10/25/91 47/14/14
s 12
f 49/41/53 2/61/92 48/57/84
f 48/57/84 5/43/83 26/79/93 49/41/53
f 49/41/53 6/27/94 24/112/51
s 8
f 27/76/56 1/60/95 23/39/96 50/45/57
f 23/39/96 35/11/74 51/28/30 50/45/57
f 51/28/30 6/81/29 26/42/54 50/45/57
s 5
f 12/47/59 16/70/70 13/17/17 52/16/16
f 53/48/61 1/78/97 27/44/98 54/49/62
f 27/44/98 5/120/99 41/73/100 54/49/62
f 41/73/100 8/46/58 28/19/19 54/49/62
s 12
f 9/4/101 7/101/102 8/74/103 29/62/104
s 6
f 15/98/64 31/20/20 55/23/23 40/26/40
s 12
f 32/66/105 9/4/101 57/63/106 56/116/107
s 15
f 57/115/108 2/84/109 25/7/65 56/50/67
s 2
f 47/14/14 10/25/91 58/109/68
s 9
f 45/52/72 1/77/90 53/110/110 34/53/73
f 53/110/110 3/103/79 33/36/111 34/53/73
s 2
f 43/10/112 10/25/91 11/13/13
s 3
f 44/12/12 35/117/11 22/85/113 37/55/77
f 22/85/113 4/51/114 36/54/76 37/55/77
f 30/106/115 10/108/45 38/89/44
s 9
f 13/75/80 16/71/116 14/21/32 60/29/31
s 15
f 25/7/65 19/6/117 39/68/118 32/33/66
s 6
f 40/26/40 62/64/119 61/93/120 59/8/121
f 62/64/119 18/99/122 19/95/123 61/93/120
f 7/3/39 18/99/122 62/64/119 40/26/40
s 12
f 48/57/84 2/61/92 57/63/106 63/58/85
f 57/63/106 9/4/101 64/56/82 63/58/85
f 64/56/82 9/4/101 29/62/104
f 29/62/104 8/74/103 41/59/86 64/56/82
f 26/79/93 6/27/94 49/41/53
s 9
f 33/36/111 3/103/79 20/65/34
s 12
f 25/83/52 2/61/92 49/41/53
